<svg width="74" height="18" viewBox="0 0 74 18" fill="none" xmlns="http://www.w3.org/2000/svg">
<path d="M0.0109428 17V15.9431L2.12473 15.4376V2.47919L0.0109428 1.97371V0.916819H11.8665V5.62689H10.8096L9.84466 2.45621L4.95078 2.2724V8.15425L9.91359 7.74068V9.78554L4.95078 9.39495V15.4376L7.52409 15.9431V17H0.0109428ZM10.8416 17V15.9431L13.0013 15.4376L18.5845 0.801939H20.2388L25.4773 15.4606L27.5911 15.9431V17H20.8361V15.9431L22.5364 15.5525L21.4335 12.4508H15.8044L14.6097 15.4836L16.6315 15.9431V17H10.8416ZM16.3099 11.0952H20.9281L18.6764 4.82273L16.3099 11.0952ZM28.942 4.59298C28.942 3.32164 29.4475 2.33367 30.4584 1.62907C31.4694 0.924478 32.779 0.57218 34.3873 0.57218C36.1028 0.57218 37.6729 0.748329 39.0974 1.10063L38.9825 5.51201H37.9486L36.7998 2.20347C36.1565 2.08094 35.5055 2.01967 34.8468 2.01967C33.7899 2.01967 32.9551 2.22645 32.3424 2.64002C31.7451 3.05358 31.4464 3.62798 31.4464 4.36322C31.4464 4.99123 31.7144 5.51967 32.2505 5.94856C32.802 6.36212 33.7516 6.85228 35.0996 7.41902C35.8195 7.71005 36.4092 7.98576 36.8687 8.24615C37.3435 8.49123 37.849 8.82055 38.3851 9.23412C38.9212 9.64769 39.3195 10.1455 39.5799 10.7276C39.8556 11.3096 39.9934 11.9606 39.9934 12.6805C39.9934 14.2122 39.4267 15.3917 38.2932 16.2188C37.2363 16.9847 35.9114 17.36 34.3184 17.3446C33.8895 17.3446 33.1772 17.3063 32.1816 17.2298C31.2013 17.1532 30.1367 16.9464 28.988 16.6094V12.0831H30.0448L31.2166 15.5295C31.8599 15.7287 32.6105 15.8282 33.4683 15.8282C34.663 15.8282 35.628 15.6214 36.3632 15.2079C37.0985 14.779 37.4661 14.1127 37.4661 13.209C37.4661 12.5197 37.1368 11.9223 36.4781 11.4168C35.8195 10.9114 34.8545 10.3829 33.5831 9.8315C31.837 9.08095 30.6269 8.35338 29.9529 7.64878C29.279 6.94418 28.942 5.92558 28.942 4.59298ZM50.5593 0.57218C52.3361 0.57218 53.8296 0.840233 55.0397 1.37634V5.7188H53.9828L52.9259 2.31835C52.3285 2.1805 51.6392 2.11157 50.858 2.11157C47.044 2.11157 45.137 4.39385 45.137 8.95841C45.137 13.523 46.8908 15.8052 50.3985 15.8052C50.9193 15.8052 51.3865 15.7899 51.8 15.7593C52.2136 15.7287 52.5889 15.6827 52.9259 15.6214L54.2585 11.9912H55.3154L55.1545 16.3337C54.9401 16.4562 54.6337 16.5788 54.2355 16.7013C53.8372 16.8239 53.4007 16.9311 52.9259 17.023C52.4663 17.1149 51.9838 17.1915 51.4784 17.2527C50.9882 17.314 50.5364 17.3446 50.1228 17.3446C47.5342 17.3446 45.5735 16.6247 44.2409 15.1849C42.9083 13.7451 42.242 11.6696 42.242 8.95841C42.242 6.24725 42.9313 4.17175 44.3099 2.73192C45.7037 1.29209 47.7869 0.57218 50.5593 0.57218ZM65.3535 0.57218C66.5942 0.57218 67.6894 0.778964 68.6391 1.19253C69.5888 1.6061 70.3929 2.1805 71.0516 2.91573C71.7102 3.65096 72.208 4.53171 72.545 5.55797C72.882 6.58423 73.0505 7.71005 73.0505 8.93543C73.0505 10.1761 72.882 11.3096 72.545 12.3359C72.2233 13.3621 71.7332 14.2505 71.0745 15.0011C70.4312 15.7363 69.6271 16.3107 68.6621 16.7243C67.7124 17.1379 66.6095 17.3446 65.3535 17.3446C64.0209 17.3446 62.8645 17.1225 61.8842 16.6783C60.9192 16.2341 60.1227 15.6368 59.4947 14.8862C58.8666 14.1203 58.3995 13.2243 58.0931 12.198C57.8021 11.1718 57.6566 10.0689 57.6566 8.88948C57.6566 7.74068 57.8097 6.66847 58.1161 5.67285C58.4224 4.6619 58.8896 3.78116 59.5176 3.03061C60.1456 2.26474 60.9421 1.66737 61.9071 1.23848C62.8874 0.794281 64.0362 0.57218 65.3535 0.57218ZM65.3535 1.92776C63.7912 1.92776 62.6041 2.58641 61.7923 3.9037C60.9958 5.20567 60.5975 6.89057 60.5975 8.95841C60.5975 11.1488 61.0187 12.872 61.8612 14.128C62.7189 15.3687 63.8831 15.9891 65.3535 15.9891C66.824 15.9891 67.9804 15.3687 68.8229 14.128C69.6807 12.872 70.1096 11.1488 70.1096 8.95841C70.1096 6.89057 69.7036 5.20567 68.8918 3.9037C68.0953 2.58641 66.9159 1.92776 65.3535 1.92776Z" fill="#484848"/>
</svg>
