<svg width="26" height="26" viewBox="0 0 26 26" fill="none" xmlns="http://www.w3.org/2000/svg">
<rect x="0.705298" y="0.277075" width="24.7434" height="24.7434" rx="12.3717" stroke="black" stroke-width="0.441846"/>
<path fill-rule="evenodd" clip-rule="evenodd" d="M13.077 18.6138C12.9663 18.6138 12.8602 18.5705 12.7819 18.4936C12.7037 18.4167 12.6597 18.3123 12.6597 18.2035L12.6597 8.52714L10.0344 11.1093C9.95609 11.1863 9.84983 11.2296 9.73903 11.2296C9.62823 11.2296 9.52197 11.1863 9.44363 11.1093C9.36528 11.0323 9.32127 10.9278 9.32127 10.8188C9.32127 10.7099 9.36528 10.6054 9.44363 10.5284L12.7815 7.24631C12.8203 7.20811 12.8663 7.17779 12.917 7.15711C12.9677 7.13643 13.0221 7.12578 13.077 7.12578C13.1318 7.12578 13.1862 7.13643 13.2369 7.15711C13.2876 7.17779 13.3336 7.20811 13.3724 7.24631L16.7103 10.5284C16.7886 10.6054 16.8326 10.7099 16.8326 10.8188C16.8326 10.9278 16.7886 11.0323 16.7103 11.1093C16.6319 11.1863 16.5257 11.2296 16.4149 11.2296C16.3041 11.2296 16.1978 11.1863 16.1195 11.1093L13.4942 8.52714L13.4942 18.2035C13.4942 18.3123 13.4502 18.4167 13.372 18.4936C13.2937 18.5705 13.1876 18.6138 13.077 18.6138Z" fill="black"/>
</svg>
